<svg xmlns="http://www.w3.org/2000/svg" viewBox="0 0 144.63 164.11"><path d="M144.58,93.37c0,12.36-.06,24.72,0,37.07,0,2.26-.67,3.42-2.78,4.31q-33.76,14.34-67.44,28.88a4.75,4.75,0,0,1-4.1,0q-33.48-14.4-67-28.72a1.38,1.38,0,0,0-.22-.1c-2.38-.61-3.12-2-3.11-4.56.11-24.88.07-49.75.08-74.63,0-2.87.14-2.95,2.85-1.79L51.34,74.63c6.33,2.72,12.69,5.39,19,8.16a4.5,4.5,0,0,0,3.89,0q26.72-11.53,53.48-23l14.15-6.05c.44-.19.89-.36,1.35-.52.82-.3,1.23.08,1.31.86s0,1.29,0,1.93V93.37Z"/><path d="M144.44,30.71c-1.39.65-2.28,1.1-3.2,1.5L79.8,58.6c-1.84.79-3.72,1.49-5.54,2.35a4.44,4.44,0,0,1-3.91,0Q57.12,55.2,43.84,49.54,22.95,40.6,2.06,31.64a16.88,16.88,0,0,1-1.72-1c1.23-.61,2.12-1.11,3.05-1.51Q36.77,14.82,70.14.49a5,5,0,0,1,4.32,0Q108,15,141.65,29.33C142.43,29.67,143.19,30.09,144.44,30.71Z"/></svg>
