<svg xmlns="http://www.w3.org/2000/svg" viewBox="0 0 232.24 224.22"><path d="M232.23,106.7q0,29.49,0,59a12,12,0,0,1-4.52,9.61,15.45,15.45,0,0,1-3.87,2.22q-21.84,9.63-43.7,19.16c-10.83,4.73-21.69,9.41-32.53,14.13-8.55,3.73-17.15,7.34-25.62,11.25-6.62,3.06-12.89,2.79-19.43-.34-14.87-7.12-29.87-14-44.81-20.95q-23.55-11-47.08-22a30.54,30.54,0,0,1-6.43-3.7A11.92,11.92,0,0,1,0,165.35Q0,106.48,0,47.61A11.11,11.11,0,0,1,7.23,37c2.48-1,5-1.74,7.55-2.6L82.39,11.26Q96.69,6.37,111,1.46a26.12,26.12,0,0,1,18.07.32c13.29,4.88,26.6,9.68,39.9,14.53L210,31.3c4.85,1.77,9.68,3.58,14.55,5.29a11.74,11.74,0,0,1,6.77,6.27,10.57,10.57,0,0,1,.91,4.85Q232.22,77.2,232.23,106.7ZM16.4,56.58c-.07,1.13-.15,1.78-.15,2.43q0,52.09,0,104.2c0,2.34,0,2.31,2.23,3.26Q40,175.79,61.54,185.12q20,8.72,40.05,17.48c.71.3,1.47.49,2.43.81v-2.1q0-53.35,0-106.69a3.06,3.06,0,0,0-2.25-3.34c-4.8-1.88-9.55-3.89-14.33-5.83L22.74,59.06C20.75,58.26,18.75,57.5,16.4,56.58Z" transform="translate(0 0)"/><path d="M80.24,123.45v21.09c0,3.5,0,7,0,10.49,0,2.23-.59,2.64-2.52,1.69-6.6-3.23-5.64-1.84-5.67-8.54-.05-8.66,0-17.32,0-26,0-2.54,0-2.53-2.32-3.39-1.17-.44-2.35-.85-3.49-1.37-2.13-1-2.62-2.45-1.34-4.4,3.09-4.74,6.25-9.45,9.43-14.12,1.1-1.61,2-1.53,2.9.26,1,2.08,2,4.23,2.87,6.37,2.37,5.51,4.7,11,7,16.53a8.17,8.17,0,0,1,.5,1.41c.38,1.85-.37,2.55-2.14,2S82.24,124.21,80.24,123.45Z" transform="translate(0 0)"/><path d="M48.23,110.85v29.82c0,.5,0,1,0,1.5-.1,2.08-.54,2.37-2.44,1.66-5.65-2.12-5.79-2.34-5.78-8.25q0-13,0-26c0-2.46,0-2.46-2.36-3.42-1-.41-2-.79-3-1.23-2.26-1-2.76-2.51-1.47-4.59,1-1.55,2.07-3,3.1-4.54,2-3,4-6,6-8.9,1.39-2,2.3-2,3.31.22C47.39,91,49,94.91,50.72,98.8l4.66,10.77a4.43,4.43,0,0,1,.55,1.38c0,.62,0,1.46-.33,1.81a2.11,2.11,0,0,1-1.79.2C52,112.38,50.28,111.64,48.23,110.85Z" transform="translate(0 0)"/><path d="M88.24,174.68c0,1,.05,2,0,3-.1,1.71-.62,2.07-2.24,1.4-3-1.24-5.95-2.59-8.92-3.88L36.58,157.61c-5.37-2.34-4.5-2.12-4.55-7,0-.91,0-1.83,0-2.74.09-2.08.55-2.39,2.44-1.59q6.44,2.72,12.84,5.49c12.6,5.43,25.16,10.94,37.81,16.24,2.42,1,3.42,2.38,3.11,4.88a14.57,14.57,0,0,0,0,1.75Z" transform="translate(0 0)"/></svg>
