<svg xmlns="http://www.w3.org/2000/svg" viewBox="0 0 857.32 219.91"><path d="M100.14,0V60.79A47.65,47.65,0,0,0,62.63,45.66a65,65,0,0,0-32,7.91A56.66,56.66,0,0,0,8.15,76.16a74.93,74.93,0,0,0,0,68,56.65,56.65,0,0,0,22.49,22.59,65.05,65.05,0,0,0,32,7.91,47.88,47.88,0,0,0,39.12-16.3v14.44h34.69V0ZM68.94,144.87a30.66,30.66,0,0,1-23-9.43,34.91,34.91,0,0,1-9-25.26,34.9,34.9,0,0,1,9-25.26,32.59,32.59,0,0,1,45.87,0,34.9,34.9,0,0,1,9,25.26,34.91,34.91,0,0,1-9,25.26,30.38,30.38,0,0,1-22.82,9.43ZM261.71,47.55l-35.39,85-35.15-85H153.66L207.9,173.74l-.46,1.16a30.72,30.72,0,0,1-8.41,12,19.21,19.21,0,0,1-12.11,3.61,30.18,30.18,0,0,1-10.82-2.1,31.21,31.21,0,0,1-9.67-5.82l-13.27,25.87a42.63,42.63,0,0,0,15.6,8.41,63.74,63.74,0,0,0,19.33,3A52.19,52.19,0,0,0,218.7,211,65.4,65.4,0,0,0,240,180.54L296.58,47.6H261.66Zm92.43,127.07a90.86,90.86,0,0,0,31.78-5,44.52,44.52,0,0,0,20.37-14.09,33,33,0,0,0,7-20.69,30.07,30.07,0,0,0-7.22-21.42,37.75,37.75,0,0,0-17-10.59,213.65,213.65,0,0,0-25.14-5.47,111.65,111.65,0,0,1-20.05-4.43,8.32,8.32,0,0,1-6.29-8.15,9.58,9.58,0,0,1,5.82-8.4,36.84,36.84,0,0,1,17.47-3.24A72.37,72.37,0,0,1,397,82.44l12.11-25.86a74.06,74.06,0,0,0-21.77-8,122.29,122.29,0,0,0-26.42-2.91,85.57,85.57,0,0,0-31.09,5.13,44.18,44.18,0,0,0-20,14.31,34.35,34.35,0,0,0-6.83,21.1,30.41,30.41,0,0,0,7.34,21.88,39.23,39.23,0,0,0,17.34,10.71A185,185,0,0,0,353,124.12a93,93,0,0,1,19.32,4,8.08,8.08,0,0,1,6.29,7.68q0,11.42-23.05,11.41a84.94,84.94,0,0,1-23.28-3.38A76,76,0,0,1,312,135.06l-12.1,26.08a79.76,79.76,0,0,0,23.74,9.66,121.25,121.25,0,0,0,30.5,3.84h0Zm143.42,0A74.41,74.41,0,0,0,533,166.35a61.64,61.64,0,0,0,24.44-22.93,67,67,0,0,0,0-66.61A61.59,61.59,0,0,0,533,53.87a80.16,80.16,0,0,0-70.9,0,61.39,61.39,0,0,0-24.57,22.94,67,67,0,0,0,0,66.61,61.43,61.43,0,0,0,24.57,22.93,75.25,75.25,0,0,0,35.53,8.27h0Zm0-29.81a30.62,30.62,0,0,1-23.05-9.42,34.89,34.89,0,0,1-9.06-25.27,34.88,34.88,0,0,1,9.06-25.26,30.66,30.66,0,0,1,23.05-9.43,30.3,30.3,0,0,1,22.93,9.43,35.13,35.13,0,0,1,9,25.26,35.14,35.14,0,0,1-9,25.27,30.27,30.27,0,0,1-22.91,9.48h0ZM668.94,45.63a62.38,62.38,0,0,0-23.51,4.31A48.24,48.24,0,0,0,627.5,62.16V47.52H592.81V172.78h36.32V110.85a35.16,35.16,0,0,1,8.15-25.26,28.89,28.89,0,0,1,21.88-8.5A23.93,23.93,0,0,1,678,84.42a32.65,32.65,0,0,1,6.52,22.24v66.12h36.32V101.07q0-27.46-14.32-41.44a51.55,51.55,0,0,0-37.6-14h0Zm129.19,129a90.86,90.86,0,0,0,31.78-5,44.52,44.52,0,0,0,20.37-14.09,33,33,0,0,0,7-20.69,30.07,30.07,0,0,0-7.22-21.42,37.75,37.75,0,0,0-17-10.59,213.65,213.65,0,0,0-25.14-5.47,111.65,111.65,0,0,1-20-4.43,8.32,8.32,0,0,1-6.29-8.15,9.58,9.58,0,0,1,5.82-8.4,36.6,36.6,0,0,1,17.47-3.24,72.37,72.37,0,0,1,36.08,9.31l12.11-25.86a73.93,73.93,0,0,0-21.76-8,121.76,121.76,0,0,0-26.43-2.91,85.51,85.51,0,0,0-31.08,5.12,44.23,44.23,0,0,0-20,14.32,34.32,34.32,0,0,0-6.87,21.07,30.45,30.45,0,0,0,7.34,21.88,39.23,39.23,0,0,0,17.34,10.71,185,185,0,0,0,25.38,5.36,93.2,93.2,0,0,1,19.33,4,8.08,8.08,0,0,1,6.28,7.68q0,11.42-23,11.41a84.94,84.94,0,0,1-23.28-3.38,76.15,76.15,0,0,1-20.26-8.73l-12.1,26.08a79.71,79.71,0,0,0,23.75,9.66,121.14,121.14,0,0,0,30.5,3.84h0Z"/></svg>
