<svg xmlns="http://www.w3.org/2000/svg" viewBox="0 0 512.4 512.66"><path d="M447.53,216.86c-.06,51.64-12.27,92.31-36.31,129.47-2.41,3.72-2.43,3.75.79,7q43.29,43.31,86.61,86.56c6.42,6.4,11,13.66,12.89,22.62a41.1,41.1,0,0,1-18.18,43.28c-17.31,11.06-37.69,8.64-52.53-6.13q-43-42.84-85.89-85.87c-4.85-4.85-4.83-4.81-10.85-1a224.55,224.55,0,0,1-83.31,31.91,220.52,220.52,0,0,1-53.23,2.45c-49.67-3.84-93.51-22.05-131.13-54.94A223.3,223.3,0,0,1,64.58,66.71a221.64,221.64,0,0,1,77.78-51.34A228.12,228.12,0,0,1,198.85,1.43a209.84,209.84,0,0,1,38.41-1A224.91,224.91,0,0,1,313.93,19,221.72,221.72,0,0,1,387.84,71.7a219.84,219.84,0,0,1,51.63,92.38C444.88,183.77,447.74,203.76,447.53,216.86ZM223.77,371.45c81.4.82,148-66.43,147.75-147.85-.2-80.78-66-147.21-147.39-147.42S76,142.7,76.09,224C76.17,305.64,142.83,372.15,223.77,371.45Z"/></svg>
