<svg xmlns="http://www.w3.org/2000/svg" viewBox="0 0 194.66 236.9"><path d="M97.49,0q46.46,0,92.9,0c4.76,0,4.2-.51,4.2,4.07,0,40.7-.09,81.41.07,122.12.07,17.3-5,32.9-14.29,47.29a133.12,133.12,0,0,1-25.65,28.78,220.8,220.8,0,0,1-48.83,31.28c-2,.93-4,1.7-5.92,2.66a5.56,5.56,0,0,1-5.24.05c-6-3-12-5.7-17.91-8.82A189.92,189.92,0,0,1,50.91,211c-4.3-3.27-8.54-6.64-12.64-10.16a131.32,131.32,0,0,1-18.2-19.14c-8.16-10.5-14.4-22-17.71-34.92A69.15,69.15,0,0,1,0,129.57Q0,66.14,0,2.7C0,2.45,0,2.2,0,2-.1.62.4-.1,1.84,0c.67,0,1.34,0,2,0H97.49Zm-.2,217.06c.06-1.19.14-1.92.14-2.65V45.11c0-7.07,0-14.15,0-21.22,0-2.08,0-2.08-2-2.14H21.2c-3.16,0-2.94-.21-2.94,3,0,16.48-.06,33,0,49.44.07,19.38.1,38.77.43,58.15.18,10.54,3.76,20.2,8.94,29.29,6.91,12.11,16.42,21.94,27.24,30.56a183.87,183.87,0,0,0,37,22.56C93.52,215.54,95.21,216.19,97.29,217.07Z"/></svg>
