<svg xmlns="http://www.w3.org/2000/svg" viewBox="0 0 206.41 398.75" fill="#606060"><path d="M52.67.69A187.3,187.3,0,0,1,72,50.17c2.28,10,4,20.22,5.42,30.41.84,5.9.7,12,.91,17.93,1.09,31.37-6.5,61-18.1,89.82-6.46,16-13,32.07-19,48.28A146.6,146.6,0,0,0,32,279.36c-.51,9-1.17,18-.68,26.93A248.61,248.61,0,0,0,35,336.44C38.66,356.9,44,377,49.53,397a8.16,8.16,0,0,1-.17,1.73c-1.52-1.92-2.71-3.39-3.88-4.88a226.11,226.11,0,0,1-32.6-56.47A182,182,0,0,1,.67,287.19c-2.35-25.4,1.59-49.8,10.37-73.44,7.07-19,15.08-37.67,22.7-56.47,8-19.65,14-39.85,16.89-60.88a309.79,309.79,0,0,0,1.59-65.29c-.59-7.79-1-15.6-1.36-23.41C50.74,5.41,50.47,3,52.67.69Z"/><path d="M176.55,398.4c-5.33-7.6-10.88-15.07-15.94-22.85A201.42,201.42,0,0,1,141.05,338a189.53,189.53,0,0,1-12.38-50.69c-2.41-25.74,1.7-50.44,10.68-74.38,7.12-19,15.11-37.65,22.66-56.48,6.7-16.7,12.19-33.74,15.16-51.56,2.2-13.15,4-26.34,3.84-39.67-.14-15.65-.76-31.29-1.26-46.94-.11-3.65-.76-7.28-.85-10.93a39,39,0,0,1,.82-6.21l1-.13c1.79,3.29,3.72,6.5,5.33,9.87,9.31,19.51,15,40.06,18.38,61.4,2.41,15.11,2.25,30.22,1.48,45.33a175.46,175.46,0,0,1-11.26,53c-5.92,15.72-12.16,31.31-18.37,46.91s-11.83,31.45-14.61,48.1a191.09,191.09,0,0,0-1.83,47.73c2.36,28.37,10.41,55.46,17.46,82.8.15.6.32,1.2.48,1.8Z"/><path d="M112.94,0a26.17,26.17,0,0,1,2.28,2.77c11.33,20.8,18.4,43,22.11,66.38A193.85,193.85,0,0,1,140,106.4c-.79,22.41-4.26,44.33-12.35,65.35-7.11,18.46-14.39,36.86-21.61,55.28a207.07,207.07,0,0,0-11.61,42.22c-.72,4.42-.9,8.92-1.3,13.39a91.83,91.83,0,0,0-.78,10.44c.26,8.31.57,16.63,1.37,24.9,2.6,26.58,10.28,52.09,16.87,77.82.15.62.28,1.24.65,2.88-1.21-1.14-1.77-1.56-2.2-2.08a200.11,200.11,0,0,1-21.22-31.41,286.22,286.22,0,0,1-13.69-28.27A165.78,165.78,0,0,1,63,295.65,171.77,171.77,0,0,1,71.2,217c5.66-16.38,12.82-32.12,19.33-48.14,6.32-15.56,12.87-31.07,16.52-47.52,2.43-11,4.27-22.17,5.85-33.34a216.76,216.76,0,0,0,1.84-39.36C114.2,35.5,113,22.41,112.25,9.3,112.1,6.59,112.64,3.83,112.94,0Z"/></svg>
