<svg xmlns="http://www.w3.org/2000/svg" viewBox="0 0 310.09 309.31"><path d="M272,0c6.07,0,12.14,0,18.21,0,10.85.06,19.64,8.16,19.89,19a19.44,19.44,0,0,1-19.27,20.2c-6.38.19-12.77,0-19.15,0-2.7,0-2.67.27-3.06,2.45-2.18,12.12-4.55,24.22-6.69,36.35-2.31,13.16-4.46,26.36-6.66,39.54q-2.94,17.61-5.86,35.22-3.35,20.08-6.7,40.17c-1.37,8.24-2.76,16.48-4,24.73-1.49,9.57-7.18,16-16.09,17.82a18.71,18.71,0,0,1-3.74.32q-88.07,0-176.13,0a19.24,19.24,0,0,1-19.05-15.19c-3.45-15.71-6.71-31.47-10-47.2Q8.43,148.89,3.3,124.37c-1-5-2.16-10-3-15.05C-1.44,99.4,5.2,89.39,15,87.38c5.72-1.17,11.56-1.74,17.35-2.54q13-1.82,26.07-3.57c8.59-1.15,17.19-2.24,25.77-3.4,10-1.36,20.06-2.8,30.1-4.16,6.93-.95,13.87-1.82,20.81-2.75,6.72-.9,13.44-1.85,20.17-2.76,8.69-1.18,17.38-2.33,26.07-3.51,8.28-1.12,16.55-2.27,24.83-3.39,5.48-.75,11-1.51,16.45-2.23,2.7-.35,2.75-.3,3.31-3.16,2.49-12.82,5-25.62,7.4-38.46,1.06-5.69,3.46-10.47,8.3-13.86A19,19,0,0,1,252.84,0C259.22,0,265.6,0,272,0Z"/><path d="M169.29,283.72a25.47,25.47,0,0,1,50.94,0c0,15.72-12.7,25.71-25.82,25.58C180.09,309.17,168.9,296.94,169.29,283.72Z"/><path d="M35.51,283.83c-.37-11.49,8.56-25.32,25.47-25.54a25.51,25.51,0,1,1-.25,51C45.74,309.21,35,296.23,35.51,283.83Z"/></svg>
