<svg xmlns="http://www.w3.org/2000/svg" viewBox="0 0 416.36 365.13"><path d="M121.67,30a86.72,86.72,0,0,1,36.69,7.68,85.22,85.22,0,0,1,25.82,17.85c3,3,10.82,10.9,24.06,10.9s21.28-8.07,24.31-11.11a82.92,82.92,0,0,1,35-21.18A87.06,87.06,0,0,1,288,30.4c2.23-.14,4.45-.21,6.63-.21a90.52,90.52,0,0,1,50.94,15.3C366.3,59,378.91,77.72,384.1,102.6a99.21,99.21,0,0,1,2.25,21.73v.33c0,17.6-3.82,35-11.57,53.18-8.41,19.73-20.7,38.79-37.56,58.29-24.29,28.09-53.88,52.85-90.45,75.68a440.33,440.33,0,0,1-38.53,21.36c-10.36-5.19-22.63-11.61-34.5-18.83a454.73,454.73,0,0,1-50.51-35.6c-4.17-3.39-8.5-7.22-12.31-10.59-13-11.53-22.2-20.76-29.76-29.93-7-8.52-14.42-17.62-20.89-26.88-14.75-21.12-24-42.47-28.28-65.27a111.69,111.69,0,0,1-1.69-29C32,95.06,39,77.13,51.74,62.26s28.67-24.48,48.75-29.5A86.52,86.52,0,0,1,119.87,30l1.8,0m0-30-2.32,0A116.14,116.14,0,0,0,93.21,3.66C67.74,10,46.11,22.74,29,42.73,11.2,63.44,2.43,87.87.39,114.81A141,141,0,0,0,2.5,151.6c5.28,28.12,16.89,53.59,33.18,76.91,6.94,10,14.61,19.42,22.33,28.79,10,12.1,21.29,22.93,33,33.31,4.36,3.87,8.74,7.73,13.25,11.4a483.23,483.23,0,0,0,53.87,38c14,8.49,28.43,16,43.08,23.21a16.5,16.5,0,0,0,7.3,1.95,12.7,12.7,0,0,0,6.78-2.05c1-.61,2.1-1,3.15-1.52a478.82,478.82,0,0,0,44.19-24.3c36.24-22.63,69.22-49.09,97.25-81.51,17.32-20,32-41.69,42.47-66.14,8.84-20.74,13.93-42.28,14-64.9a130.1,130.1,0,0,0-2.88-28.24C406.7,64,389.63,38.44,362,20.38A120.83,120.83,0,0,0,294.63.19c-2.82,0-5.67.09-8.53.27a117.39,117.39,0,0,0-27.4,5,113.43,113.43,0,0,0-47.4,28.66c-1.53,1.54-2.3,2.29-3.06,2.29s-1.42-.68-2.76-2a116.15,116.15,0,0,0-34.7-24A117.41,117.41,0,0,0,121.67,0Z"/></svg>
