<svg xmlns="http://www.w3.org/2000/svg" viewBox="0 0 180.4 275.42"><path d="M180.38,119.61q0,33,0,66a86.61,86.61,0,0,1-17.58,53c-14.8,19.87-34.52,31.88-59.08,35.71-43.63,6.82-84.21-19.42-98.08-57.82A88.07,88.07,0,0,1,0,186.3q0-67.23,0-134.45C.05,30.53,9.74,15,28.67,5.24,35.9,1.53,43.8.16,51.86.14c26-.09,52-.3,78,.07,26.59.38,46.48,18.73,50.28,43.94a54.49,54.49,0,0,1,.29,8c0,11.32,0,22.65,0,34Q180.37,102.86,180.38,119.61ZM102,50.47h0c0-7.66,0-15.32,0-23,0-3.27-3.52-7.88-6.57-8.38a51.42,51.42,0,0,0-7.94-.63c-4.24,0-9,4.61-9,8.82q-.06,23,0,46a5.4,5.4,0,0,0,.77,3.27c2.58,3,5,6.44,9.86,5.4a19.34,19.34,0,0,1,3.49,0,9.7,9.7,0,0,0,9.33-9.46C102,65.12,102,57.8,102,50.47Z"/></svg>
