<svg xmlns="http://www.w3.org/2000/svg" viewBox="0 0 416.47 392.5"><path d="M207.68,392.44c-53.16,0-106.32-.14-159.48.06C27.05,392.58,7.07,377.88,1.72,357a56.63,56.63,0,0,1-1.63-13.8Q-.06,249,0,154.73c0-22.66-.06-45.32,0-68C.11,71,2.71,55.59,9.05,41,18.23,20,34.22,7.13,56.58,2.2A98.93,98.93,0,0,1,77.89.05q125,.08,250,0c21.77,0,41.43,14.94,46.72,35.18A54.56,54.56,0,0,1,376.29,47c.27,7.49.15,15,0,22.49,0,2.36.62,3.24,3.14,3.94,20.62,5.75,32.78,19.38,36.61,40.4a35.94,35.94,0,0,1,.28,6.49c0,74.49-.16,149,.1,223.47a48.78,48.78,0,0,1-41.83,48.4,55.83,55.83,0,0,1-8,.27Zm-19-320.35H338.11c1,0,2-.08,3,0,2.09.17,3-.62,2.95-2.83-.11-7.16.16-14.34-.11-21.49a15.85,15.85,0,0,0-14.48-15.27,42.19,42.19,0,0,0-4.5-.07q-121.71,0-243.41.05a103,103,0,0,0-15.41,1c-7.87,1.19-15.1,4-20.71,10.06S36.88,57.33,35.2,65.43c-1.38,6.66-1.38,6.66,5.52,6.66ZM360,236.48c-.13-19.5-15.22-35.69-35.35-36a35.75,35.75,0,1,0-.9,71.5C343.67,272.28,359.62,256.6,360,236.48Z"/></svg>
